<?xml version="1.0" standalone="no"?>
<!DOCTYPE svg PUBLIC "-//W3C//DTD SVG 20010904//EN"
 "http://www.w3.org/TR/2001/REC-SVG-20010904/DTD/svg10.dtd">
<svg version="1.0" xmlns="http://www.w3.org/2000/svg"
 width="1080.000000pt" height="1080.000000pt" viewBox="0 0 1080.000000 1080.000000"
 preserveAspectRatio="xMidYMid meet">

<g transform="translate(0.000000,1080.000000) scale(0.100000,-0.100000)"
fill="#000000" stroke="none">
<path d="M8316 6385 c-81 -33 -128 -76 -191 -171 -72 -112 -118 -248 -169
-504 -62 -313 -79 -620 -55 -975 l11 -161 -102 -202 c-100 -197 -151 -270
-183 -259 -35 11 -62 149 -54 267 3 41 15 142 26 223 12 81 22 193 23 248 l2
99 -51 52 c-47 47 -56 52 -107 56 -38 3 -61 0 -72 -9 -23 -19 -58 -77 -72
-118 -13 -36 -45 -216 -67 -368 -16 -111 -55 -202 -116 -268 -80 -87 -170
-110 -198 -51 -33 69 -36 156 -10 328 13 92 24 211 24 273 0 99 -3 115 -27
165 -15 30 -33 62 -40 70 -20 24 -152 109 -188 121 -41 15 -117 3 -129 -20 -6
-10 -17 -72 -26 -139 -37 -287 -66 -390 -149 -527 -24 -38 -68 -113 -99 -166
-98 -167 -235 -321 -320 -360 -51 -23 -69 -23 -106 -4 -56 29 -122 168 -108
226 4 14 38 64 77 110 101 120 154 203 183 289 14 41 38 109 53 150 23 66 26
85 21 160 -5 92 -27 169 -52 185 -9 6 -32 25 -52 43 -47 42 -129 66 -197 58
-67 -9 -204 -79 -271 -138 -81 -73 -122 -143 -170 -293 -46 -139 -91 -238
-182 -395 -113 -195 -217 -330 -254 -330 -35 0 -54 47 -53 130 1 78 41 330 75
462 25 98 24 169 -2 270 -31 120 -82 189 -163 223 -50 21 -88 14 -186 -35
-101 -51 -197 -152 -370 -390 -79 -108 -97 -129 -111 -130 -3 0 -11 62 -19
138 -17 183 -36 218 -154 298 -97 65 -118 74 -172 74 -74 0 -100 -23 -109 -97
-3 -32 -17 -105 -30 -163 -33 -148 -51 -269 -80 -549 -28 -273 -30 -335 -14
-430 9 -51 18 -72 41 -93 17 -16 40 -28 53 -28 13 0 52 -13 87 -30 34 -16 70
-30 79 -30 32 0 117 52 149 91 41 52 65 130 91 299 11 74 24 152 29 172 15 72
350 498 391 498 38 0 43 -34 50 -365 7 -372 15 -418 86 -512 35 -48 100 -82
170 -89 52 -6 68 -3 117 19 105 48 212 170 345 392 86 142 91 149 91 109 0
-49 38 -184 75 -261 41 -87 87 -135 189 -192 67 -38 89 -45 168 -54 112 -13
224 1 304 39 63 30 174 130 231 207 21 28 72 114 115 191 71 129 77 137 83
110 58 -258 275 -416 496 -360 78 20 125 50 206 131 l62 62 21 -62 c65 -195
189 -265 346 -196 88 39 179 152 291 361 26 49 50 90 53 90 4 0 16 -32 29 -72
33 -102 113 -253 174 -330 64 -81 122 -130 201 -171 52 -27 72 -31 138 -32 69
0 80 3 119 30 51 36 115 113 205 247 72 107 118 202 174 358 63 175 146 390
185 480 59 136 57 145 -14 70 -33 -36 -81 -85 -105 -110 -36 -36 -58 -77 -116
-210 -157 -362 -278 -560 -344 -560 -57 0 -96 60 -160 246 -52 148 -91 306
-101 407 l-7 68 66 138 c42 88 73 169 85 222 10 46 39 163 64 259 51 201 64
272 71 390 3 47 9 98 15 113 15 39 13 215 -3 313 -10 66 -19 89 -46 123 -19
23 -48 51 -66 61 -44 28 -123 26 -198 -5z m161 -216 c15 -42 17 -356 3 -484
-17 -164 -59 -351 -119 -528 -49 -148 -53 -140 -51 114 2 391 89 954 144 936
6 -2 16 -19 23 -38z m-2575 -1108 c42 -49 52 -107 39 -214 -9 -71 -21 -110
-51 -172 -39 -80 -120 -197 -142 -204 -14 -5 -5 335 12 443 12 80 44 145 80
163 34 17 35 17 62 -16z"/>
<path d="M2255 6337 c-230 -123 -226 -120 -302 -240 -106 -168 -183 -374 -214
-572 -5 -33 -17 -103 -25 -155 -24 -151 -30 -475 -10 -588 9 -50 16 -146 16
-211 0 -230 71 -475 231 -794 105 -209 148 -257 289 -325 94 -45 96 -45 245
-55 240 -17 253 -15 352 32 103 50 172 101 266 196 133 136 206 269 237 435 7
43 68 347 89 455 6 28 12 214 14 415 l4 365 -28 137 c-37 176 -79 302 -139
408 -27 47 -54 103 -60 125 -7 22 -27 58 -45 80 -18 23 -40 58 -49 78 -26 63
-66 105 -150 161 -114 75 -139 86 -190 86 -64 0 -76 -7 -76 -45 0 -25 10 -46
38 -78 50 -58 127 -283 136 -397 3 -41 15 -104 26 -140 19 -56 23 -102 30
-340 5 -151 13 -333 19 -405 25 -306 28 -374 20 -436 -5 -35 -14 -102 -19
-149 -36 -289 -103 -628 -133 -670 -33 -48 -148 -114 -182 -106 -21 5 -71 63
-119 138 -27 43 -93 491 -112 768 -8 110 13 851 26 955 6 44 15 115 21 158 6
43 23 117 39 165 21 64 27 99 23 132 -4 35 2 62 26 122 17 42 31 82 31 90 0 7
11 46 25 86 27 80 25 109 -8 140 -18 17 -41 21 -132 26 l-110 7 -100 -54z"/>
</g>
</svg>
